Coordinates
version=1
nRows=8
nColumns=63
inDegrees=yes

Units are S.I. units (second, meters, Newtons, ...)
If the header above contains a line with 'inDegrees', this indicates whether rotational values are in degrees (yes) or radians (no).

endheader
time	pelvis_tilt	pelvis_list	pelvis_rotation	pelvis_tx	pelvis_ty	pelvis_tz	hip_flexion_r	hip_adduction_r	hip_rotation_r	knee_angle_r	knee_angle_r_beta	ankle_angle_r	subtalar_angle_r	mtp_angle_r	hip_flexion_l	hip_adduction_l	hip_rotation_l	knee_angle_l	knee_angle_l_beta	ankle_angle_l	subtalar_angle_l	mtp_angle_l	L5_S1_Flex_Ext	L5_S1_Lat_Bending	L5_S1_axial_rotation	L4_L5_Flex_Ext	L4_L5_Lat_Bending	L4_L5_axial_rotation	L3_L4_Flex_Ext	L3_L4_Lat_Bending	L3_L4_axial_rotation	L2_L3_Flex_Ext	L2_L3_Lat_Bending	L2_L3_axial_rotation	L1_L2_Flex_Ext	L1_L2_Lat_Bending	L1_L2_axial_rotation	L1_T12_Flex_Ext	L1_T12_Lat_Bending	L1_T12_axial_rotation	Abs_r3	Abs_r2	Abs_r1	Abs_t1	Abs_t2	neck_flexion	neck_bending	neck_rotation	arm_flex_r	arm_add_r	arm_rot_r	elbow_flex_r	pro_sup_r	wrist_flex_r	wrist_dev_r	arm_flex_l	arm_add_l	arm_rot_l	elbow_flex_l	pro_sup_l	wrist_flex_l	wrist_dev_l
5.450000	-0.817414	-4.136785	94.566428	0.163039	1.023305	0.383363	-0.625935	0.094386	-3.940932	4.916926	0.085817	32.431778	6.691003	0.000000	-1.921062	0.393767	8.354758	0.490936	0.008568	28.715588	-5.371664	0.000000	0.009736	-0.129677	-1.008558	0.018080	-0.172471	-1.071593	0.015995	-0.315297	-1.071593	0.011127	-0.315297	-0.882488	0.009040	-0.264438	-0.819453	0.005563	-0.200870	-0.756418	0.069540	-1.466935	-5.609295	0.000000	0.000000	22.206584	-3.279194	-1.997094	9.910235	-6.626308	60.793990	40.530041	29.173202	6.579774	-8.941952	10.732951	-2.945708	55.199750	26.075697	78.093597	0.377215	-16.522569
5.466667	-0.813225	-4.163257	94.698367	0.162841	1.023279	0.383233	-0.609775	0.112123	-3.778032	4.941519	0.086246	32.267707	6.207905	0.000000	-1.878077	0.384392	8.375024	0.493329	0.008610	28.869957	-5.047399	0.000000	0.007241	-0.127981	-1.030592	0.013447	-0.170214	-1.095004	0.011896	-0.311172	-1.095004	0.008275	-0.311172	-0.901768	0.006724	-0.260978	-0.837356	0.004137	-0.198242	-0.772944	0.051719	-1.447741	-5.731845	0.000000	0.000000	22.386357	-3.586836	-2.420810	9.848753	-6.675158	60.574491	40.643400	29.397338	6.605076	-9.062904	10.708965	-2.953120	55.129007	26.132690	78.271043	0.369557	-16.694597
5.483333	-0.836056	-4.168182	94.780364	0.162762	1.023249	0.382958	-0.603521	0.089736	-3.797607	5.037167	0.087915	32.184688	6.034374	0.000000	-1.880995	0.400387	8.416423	0.491802	0.008584	28.976289	-4.854988	0.000000	0.003032	-0.129458	-1.043932	0.005630	-0.172179	-1.109178	0.004980	-0.314763	-1.109178	0.003465	-0.314763	-0.913441	0.002815	-0.263990	-0.848195	0.001732	-0.200530	-0.782949	0.021654	-1.464451	-5.806038	0.000000	0.000000	22.577854	-3.891872	-2.847463	9.771743	-6.687022	60.359451	40.714294	29.598559	6.616799	-9.143174	10.662004	-2.980153	55.023159	26.207352	78.478875	0.366266	-16.835125
5.500000	-0.884669	-4.153815	94.811120	0.162791	1.023213	0.382518	-0.608751	0.028365	-3.991394	5.197264	0.090709	32.201090	6.171755	0.000000	-1.926380	0.442527	8.474850	0.488108	0.008519	29.043194	-4.802276	0.000000	-0.002353	-0.133789	-1.047172	-0.004370	-0.177939	-1.112621	-0.003866	-0.325294	-1.112621	-0.002689	-0.325294	-0.916276	-0.002185	-0.272822	-0.850828	-0.001344	-0.207239	-0.785379	-0.016807	-1.513445	-5.824059	0.000000	0.000000	22.785755	-4.178934	-3.269122	9.668846	-6.663541	60.154962	40.740150	29.768274	6.616651	-9.183850	10.591985	-3.021346	54.890869	26.292362	78.714081	0.366917	-16.946408
5.516667	-0.921919	-4.129216	94.834241	0.162845	1.023159	0.381904	-0.615707	-0.033585	-4.367079	5.427997	0.094736	32.325278	6.587303	0.000000	-1.999448	0.469375	8.567108	0.482411	0.008420	29.110451	-4.825233	0.000000	-0.005628	-0.136069	-1.046930	-0.010451	-0.180972	-1.112363	-0.009245	-0.330838	-1.112363	-0.006432	-0.330838	-0.916063	-0.005226	-0.277472	-0.850630	-0.003216	-0.210771	-0.785197	-0.040197	-1.539240	-5.822708	0.000000	0.000000	22.932949	-4.588137	-3.751985	9.528852	-6.630867	59.959799	40.738961	29.861866	6.615169	-9.109941	10.495535	-3.041519	54.733205	26.351988	78.966662	0.372081	-16.998511
5.533333	-0.982587	-4.076435	94.818787	0.162984	1.023119	0.381140	-0.649065	-0.129154	-4.895458	5.708398	0.099630	32.562471	7.296836	0.000000	-2.122660	0.518097	8.669008	0.472996	0.008255	29.158647	-4.952921	0.000000	-0.010896	-0.140772	-1.039704	-0.020235	-0.187227	-1.104685	-0.017901	-0.342273	-1.104685	-0.012453	-0.342273	-0.909741	-0.010118	-0.287063	-0.844759	-0.006226	-0.218056	-0.779778	-0.077828	-1.592443	-5.782521	0.000000	0.000000	23.052780	-4.970610	-4.174988	9.378707	-6.562890	59.826531	40.678034	29.937452	6.583931	-8.982926	10.376096	-3.076529	54.552058	26.433024	79.204689	0.381417	-16.980674
5.550000	-1.062054	-4.002364	94.762525	0.163214	1.023090	0.380262	-0.697903	-0.253707	-5.573926	6.037382	0.105372	32.909129	8.295996	0.000000	-2.285980	0.583799	8.782523	0.461072	0.008047	29.193787	-5.187337	0.000000	-0.017457	-0.147700	-1.025196	-0.032419	-0.196441	-1.089271	-0.028680	-0.359118	-1.089271	-0.019952	-0.359118	-0.897046	-0.016211	-0.301190	-0.832972	-0.009975	-0.228788	-0.768897	-0.124693	-1.670813	-5.701831	0.000000	0.000000	23.148360	-5.324967	-4.536022	9.225787	-6.459860	59.757691	40.559035	29.987690	6.524004	-8.804218	10.239893	-3.123800	54.353822	26.526698	79.424734	0.393250	-16.893901
5.566667	-1.156179	-3.898934	94.669892	0.163510	1.023092	0.379310	-0.781679	-0.401602	-6.427243	6.378417	0.111324	33.337356	9.616157	0.000000	-2.499737	0.663893	8.924938	0.438362	0.007651	29.185229	-5.570644	0.000000	-0.027274	-0.156227	-1.002812	-0.050650	-0.207782	-1.065487	-0.044808	-0.379850	-1.065487	-0.031171	-0.379850	-0.877460	-0.025327	-0.318578	-0.814784	-0.015584	-0.241996	-0.752109	-0.194815	-1.767271	-5.577338	0.000000	0.000000	23.229847	-5.634427	-4.819777	9.080967	-6.332185	59.759478	40.388183	29.985640	6.453242	-8.627980	10.100334	-3.170986	54.141060	26.606619	79.697294	0.409185	-16.807440
